<?xml version="1.0" encoding="UTF-8"?>
<svg version="1.1" viewBox="0 0 439.4 331.5" xmlns="http://www.w3.org/2000/svg" fill="#090b2c">
  <path d="m32 0.072266c-17.419 0-31.928 14.509-31.928 31.928v267.6c0 17.419 14.509 31.928 31.928 31.928h375.5c17.522 0 31.928-14.406 31.928-31.928v-267.6c0-17.419-14.509-31.928-31.928-31.928zm20.104 30.654h337.54l-155.06 156.12c-8.1622 7.5436-20.379 7.5178-28.512-0.0566zm-21.377 21.98 111.03 112.54-111.03 113.49zm378.05 2.2559v223.78l-110.22-112.82zm-245.49 132.11 21.51 21.803 0.21289 0.20118c19.704 18.509 50.765 18.57 70.543 0.14062l0.21679-0.20117 21.186-21.328 110.58 113.19h-335.58z"/>
</svg>
