<svg width="30" height="30" viewBox="0 0 30 30" fill="#090b2c" xmlns="http://www.w3.org/2000/svg">
<path d="M10.0012 15C10.0012 12.2387 12.2392 9.9996 15.0006 9.9996C17.762 9.9996 20.0012 12.2387 20.0012 15C20.0012 17.7613 17.762 20.0004 15.0006 20.0004C12.2392 20.0004 10.0012 17.7613 10.0012 15ZM7.29797 15C7.29797 19.254 10.7464 22.7023 15.0006 22.7023C19.2548 22.7023 22.7032 19.254 22.7032 15C22.7032 10.746 19.2548 7.29768 15.0006 7.29768C10.7464 7.29768 7.29797 10.746 7.29797 15ZM21.2081 6.99228C21.2077 7.98639 22.0133 8.7926 23.0074 8.793C24.0016 8.7934 24.8078 7.98783 24.8082 6.99372C24.8086 5.99961 24.003 5.1934 23.0089 5.193C22.0152 5.19346 21.2089 5.99864 21.2081 6.99228ZM8.94036 27.2096C7.47786 27.143 6.68295 26.8994 6.15469 26.6936C5.45434 26.421 4.95464 26.0963 4.42926 25.5716C3.90388 25.047 3.57866 24.5478 3.30721 23.8475C3.10128 23.3195 2.85767 22.5244 2.79119 21.0619C2.71847 19.4808 2.70395 19.0058 2.70395 15.0001C2.70395 10.9944 2.71967 10.5208 2.79119 8.93832C2.85779 7.47588 3.1032 6.68232 3.30721 6.15276C3.57986 5.45244 3.9046 4.95276 4.42926 4.4274C4.95392 3.90204 5.45314 3.57684 6.15469 3.3054C6.68271 3.09948 7.47786 2.85588 8.94036 2.7894C10.5215 2.71668 10.9965 2.70216 15.0006 2.70216C19.0047 2.70216 19.4801 2.71788 21.0626 2.7894C22.5251 2.856 23.3187 3.1014 23.8483 3.3054C24.5487 3.57684 25.0484 3.90276 25.5737 4.4274C26.0991 4.95204 26.4231 5.45244 26.6958 6.15276C26.9017 6.68076 27.1453 7.47588 27.2118 8.93832C27.2845 10.5208 27.2991 10.9944 27.2991 15.0001C27.2991 19.0058 27.2845 19.4795 27.2118 21.0619C27.1452 22.5244 26.9004 23.3192 26.6958 23.8475C26.4231 24.5478 26.0984 25.0475 25.5737 25.5716C25.0491 26.0958 24.5487 26.421 23.8483 26.6936C23.3203 26.8996 22.5251 27.1432 21.0626 27.2096C19.4815 27.2824 19.0065 27.2969 15.0006 27.2969C10.9947 27.2969 10.5211 27.2824 8.94036 27.2096ZM8.81615 0.09084C7.21925 0.16356 6.12805 0.41676 5.17509 0.78756C4.18817 1.17048 3.35269 1.6842 2.51782 2.51772C1.68295 3.35124 1.17053 4.188 0.787592 5.17488C0.416777 6.1284 0.163567 7.21896 0.0908436 8.8158C0.0169207 10.4152 0 10.9265 0 15C0 19.0735 0.0169207 19.5848 0.0908436 21.1842C0.163567 22.7812 0.416777 23.8716 0.787592 24.8251C1.17053 25.8114 1.68307 26.6491 2.51782 27.4823C3.35257 28.3154 4.18817 28.8284 5.17509 29.2124C6.12985 29.5832 7.21925 29.8364 8.81615 29.9092C10.4164 29.9819 10.9269 30 15.0006 30C19.0743 30 19.5856 29.9831 21.185 29.9092C22.7821 29.8364 23.8726 29.5832 24.8261 29.2124C25.8124 28.8284 26.6485 28.3158 27.4834 27.4823C28.3183 26.6488 28.8296 25.8114 29.2136 24.8251C29.5844 23.8716 29.8388 22.781 29.9104 21.1842C29.9831 19.5836 30 19.0735 30 15C30 10.9265 29.9831 10.4152 29.9104 8.8158C29.8376 7.21884 29.5844 6.1278 29.2136 5.17488C28.8296 4.1886 28.3169 3.35256 27.4834 2.51772C26.6498 1.68288 25.8124 1.17048 24.8273 0.78756C23.8726 0.41676 22.782 0.16236 21.1862 0.09084C19.5868 0.01812 19.0755 0 15.0018 0C10.9281 0 10.4164 0.01692 8.81615 0.09084Z"/>
</svg>
