<svg width="30" height="30" viewBox="0 0 30 30" fill="none" xmlns="http://www.w3.org/2000/svg">
<path d="M15 6.46875C15 5.38144 15.8814 4.5 16.9688 4.5C18.0561 4.5 18.9375 5.38144 18.9375 6.46875V7.125C18.9375 7.84987 19.5251 8.4375 20.25 8.4375H24.1875C24.9124 8.4375 25.5 9.02513 25.5 9.75V13.6875C25.5 14.4124 24.9124 15 24.1875 15H23.5312C22.4439 15 21.5625 15.8814 21.5625 16.9688C21.5625 18.0561 22.4439 18.9375 23.5312 18.9375H24.1875C24.9124 18.9375 25.5 19.5251 25.5 20.25V24.1875C25.5 24.9124 24.9124 25.5 24.1875 25.5H20.25C19.5251 25.5 18.9375 24.9124 18.9375 24.1875V23.5312C18.9375 22.4439 18.0561 21.5625 16.9688 21.5625C15.8814 21.5625 15 22.4439 15 23.5312V24.1875C15 24.9124 14.4124 25.5 13.6875 25.5H9.75C9.02513 25.5 8.4375 24.9124 8.4375 24.1875V20.25C8.4375 19.5251 7.84987 18.9375 7.125 18.9375H6.46875C5.38144 18.9375 4.5 18.0561 4.5 16.9688C4.5 15.8814 5.38144 15 6.46875 15H7.125C7.84987 15 8.4375 14.4124 8.4375 13.6875V9.75C8.4375 9.02513 9.02513 8.4375 9.75 8.4375H13.6875C14.4124 8.4375 15 7.84987 15 7.125V6.46875Z" fill="white"/>
</svg>
