<svg width="30" height="30" viewBox="0 0 30 30" fill="none" xmlns="http://www.w3.org/2000/svg">
<path d="M18.5 9.75C18.5 11.683 16.933 13.25 15 13.25C13.067 13.25 11.5 11.683 11.5 9.75C11.5 7.817 13.067 6.25 15 6.25C16.933 6.25 18.5 7.817 18.5 9.75Z" fill="white"/>
<path d="M24.3333 12.0833C24.3333 13.372 23.2887 14.4167 22 14.4167C20.7113 14.4167 19.6667 13.372 19.6667 12.0833C19.6667 10.7947 20.7113 9.75 22 9.75C23.2887 9.75 24.3333 10.7947 24.3333 12.0833Z" fill="white"/>
<path d="M19.6667 20.25C19.6667 17.6727 17.5773 15.5833 15 15.5833C12.4227 15.5833 10.3333 17.6727 10.3333 20.25V23.75H19.6667V20.25Z" fill="white"/>
<path d="M10.3333 12.0833C10.3333 13.372 9.28866 14.4167 8 14.4167C6.71134 14.4167 5.66667 13.372 5.66667 12.0833C5.66667 10.7947 6.71134 9.75 8 9.75C9.28866 9.75 10.3333 10.7947 10.3333 12.0833Z" fill="white"/>
<path d="M22 23.75V20.25C22 19.0202 21.6828 17.8644 21.1259 16.86C21.4053 16.7882 21.6982 16.75 22 16.75C23.933 16.75 25.5 18.317 25.5 20.25V23.75H22Z" fill="white"/>
<path d="M8.87414 16.86C8.31716 17.8644 8 19.0202 8 20.25V23.75H4.5V20.25C4.5 18.317 6.067 16.75 8 16.75C8.30183 16.75 8.59473 16.7882 8.87414 16.86Z" fill="white"/>
</svg>
