<svg width="30" height="30" viewBox="0 0 30 30" fill="none" xmlns="http://www.w3.org/2000/svg">
<path d="M26.9287 8.1225C27.5 10.35 27.5 15 27.5 15C27.5 15 27.5 19.65 26.9287 21.8775C26.6112 23.1088 25.6825 24.0775 24.5062 24.405C22.37 25 15 25 15 25C15 25 7.63375 25 5.49375 24.405C4.3125 24.0725 3.385 23.105 3.07125 21.8775C2.5 19.65 2.5 15 2.5 15C2.5 15 2.5 10.35 3.07125 8.1225C3.38875 6.89125 4.3175 5.9225 5.49375 5.595C7.63375 5 15 5 15 5C15 5 22.37 5 24.5062 5.595C25.6875 5.9275 26.615 6.895 26.9287 8.1225ZM12.5 19.375L20 15L12.5 10.625V19.375Z" fill="white"/>
</svg>
