<svg width="1418" height="1284" viewBox="0 0 1418 1284" fill="none" xmlns="http://www.w3.org/2000/svg">
<g clip-path="url(#clip0_836_10027)">
<path d="M710 1282.52C1148.25 1282.52 1503.52 927.471 1503.52 489.5C1503.52 51.529 1148.25 -303.517 710 -303.517C271.753 -303.517 -83.5156 51.529 -83.5156 489.5C-83.5156 927.471 271.753 1282.52 710 1282.52Z" stroke="white" stroke-width="1.545" stroke-miterlimit="10"/>
<path d="M710 1210.43C1108.41 1210.43 1431.38 887.656 1431.38 489.5C1431.38 91.344 1108.41 -231.425 710 -231.425C311.594 -231.425 -11.3789 91.344 -11.3789 489.5C-11.3789 887.656 311.594 1210.43 710 1210.43Z" stroke="white" stroke-width="1.545" stroke-miterlimit="10"/>
<path d="M710 1138.33C1068.57 1138.33 1359.24 847.84 1359.24 489.5C1359.24 131.16 1068.57 -159.332 710 -159.332C351.435 -159.332 60.7598 131.16 60.7598 489.5C60.7598 847.84 351.435 1138.33 710 1138.33Z" stroke="white" stroke-width="1.545" stroke-miterlimit="10"/>
<path d="M710 1066.24C1028.72 1066.24 1287.1 808.024 1287.1 489.5C1287.1 170.976 1028.72 -87.2393 710 -87.2393C391.275 -87.2393 132.897 170.976 132.897 489.5C132.897 808.024 391.275 1066.24 710 1066.24Z" stroke="white" stroke-width="1.545" stroke-miterlimit="10"/>
<path d="M710 994.148C988.885 994.148 1214.97 768.209 1214.97 489.5C1214.97 210.791 988.885 -15.1479 710 -15.1479C431.115 -15.1479 205.034 210.791 205.034 489.5C205.034 768.209 431.115 994.148 710 994.148Z" stroke="white" stroke-width="1.545" stroke-miterlimit="10"/>
<path d="M710 922.055C949.044 922.055 1142.83 728.393 1142.83 489.5C1142.83 250.606 949.044 56.9451 710 56.9451C470.956 56.9451 277.173 250.606 277.173 489.5C277.173 728.393 470.956 922.055 710 922.055Z" stroke="white" stroke-width="1.545" stroke-miterlimit="10"/>
<path d="M710 849.962C909.203 849.962 1070.69 688.578 1070.69 489.5C1070.69 290.423 909.203 129.038 710 129.038C510.797 129.038 349.312 290.423 349.312 489.5C349.312 688.578 510.797 849.962 710 849.962Z" stroke="white" stroke-width="1.545" stroke-miterlimit="10"/>
<path d="M710 777.87C869.363 777.87 998.552 648.763 998.552 489.5C998.552 330.237 869.363 201.129 710 201.129C550.637 201.129 421.448 330.237 421.448 489.5C421.448 648.763 550.637 777.87 710 777.87Z" stroke="white" stroke-width="1.545" stroke-miterlimit="10"/>
</g>
<defs>
<clipPath id="clip0_836_10027">
<rect width="1590" height="1589" fill="white" transform="translate(-85 -305)"/>
</clipPath>
</defs>
</svg>
