<?xml version="1.0" encoding="UTF-8"?>
<svg fill="none" stroke="#fff" stroke-width="1.545" version="1.1" viewBox="0 0 1588.6 1587.6" xmlns="http://www.w3.org/2000/svg">
<path transform="translate(84.288 304.29)" d="m710 1282.5c438.25 0 793.52-355.05 793.52-793.02s-355.27-793.02-793.52-793.02c-438.25 0-793.52 355.05-793.52 793.02s355.27 793.02 793.52 793.02z"/>
<path transform="translate(84.288 304.29)" d="m710 1210.4c398.41 0 721.38-322.77 721.38-720.93s-322.97-720.92-721.38-720.92c-398.41 0-721.38 322.77-721.38 720.92s322.97 720.93 721.38 720.93z"/>
<path transform="translate(84.288 304.29)" d="m710 1138.3c358.57 0 649.24-290.49 649.24-648.83s-290.67-648.83-649.24-648.83c-358.56 0-649.24 290.49-649.24 648.83s290.68 648.83 649.24 648.83z"/>
<path transform="translate(84.288 304.29)" d="m710 1066.2c318.72 0 577.1-258.22 577.1-576.74s-258.38-576.74-577.1-576.74c-318.72 0-577.1 258.22-577.1 576.74s258.38 576.74 577.1 576.74z"/>
<path transform="translate(84.288 304.29)" d="m710 994.15c278.88 0 504.97-225.94 504.97-504.65s-226.08-504.65-504.97-504.65-504.97 225.94-504.97 504.65 226.08 504.65 504.97 504.65z"/>
<path transform="translate(84.288 304.29)" d="m710 922.06c239.04 0 432.83-193.66 432.83-432.56 0-238.89-193.79-432.55-432.83-432.55s-432.83 193.66-432.83 432.55c0 238.89 193.78 432.56 432.83 432.56z"/>
<path transform="translate(84.288 304.29)" d="m710 849.96c199.2 0 360.69-161.38 360.69-360.46 0-199.08-161.49-360.46-360.69-360.46s-360.69 161.38-360.69 360.46c0 199.08 161.48 360.46 360.69 360.46z"/>
<path transform="translate(84.288 304.29)" d="m710 777.87c159.36 0 288.55-129.11 288.55-288.37s-129.19-288.37-288.55-288.37-288.55 129.11-288.55 288.37 129.19 288.37 288.55 288.37z"/>
</svg>
