<svg width="31" height="30" viewBox="0 0 31 30" fill="none" xmlns="http://www.w3.org/2000/svg">
<path fill-rule="evenodd" clip-rule="evenodd" d="M15.3786 0C23.8727 0 30.7573 6.88462 30.7573 15.3787C30.7573 22.1707 26.3502 27.9345 20.2408 29.9738C19.474 30.1171 19.1875 29.6367 19.1875 29.2322C19.1875 28.8615 19.2043 27.6565 19.2043 26.3672C23.4851 27.2941 24.3867 24.5554 24.3867 24.5554C25.0862 22.7774 26.0974 22.3055 26.0974 22.3055C27.4962 21.3533 25.9962 21.3701 25.9962 21.3701C24.4542 21.4797 23.6368 22.9544 23.6368 22.9544C22.2632 25.3054 20.0386 24.6228 19.1622 24.2352C19.0274 23.2409 18.6229 22.5667 18.1847 22.1791C21.5975 21.7915 25.1957 20.4685 25.1957 14.5782C25.1957 12.9013 24.5974 11.5277 23.6115 10.4491C23.7716 10.0615 24.2941 8.49412 23.4598 6.37902C23.4598 6.37902 22.1705 5.96611 19.2296 7.95481C17.9993 7.61774 16.6848 7.44078 15.3786 7.44078C14.0725 7.44921 12.7579 7.61774 11.5276 7.95481C8.59513 5.96611 7.30584 6.37902 7.30584 6.37902C6.4716 8.49412 6.99406 10.0615 7.15416 10.4491C6.16824 11.5277 5.56995 12.9013 5.56995 14.5782C5.56995 20.4853 9.16814 21.783 12.5894 22.1622C12.0416 22.6426 11.5445 23.5779 11.5445 25.0105C11.5445 27.0666 11.5613 28.7266 11.5613 29.2322C11.5613 29.6452 11.2832 30.1171 10.508 29.9738C4.39864 27.9345 -9.73716e-05 22.1791 -9.73716e-05 15.3787C-9.73716e-05 6.88462 6.88451 0 15.3786 0Z" fill="white"/>
<path d="M24.9345 22.078C24.9682 22.1539 25.0862 22.1792 25.1958 22.1286C25.3053 22.078 25.3727 21.9769 25.3306 21.9011C25.2969 21.8252 25.1789 21.8 25.0694 21.8505C24.9598 21.9011 24.8924 22.0022 24.9345 22.078Z" fill="white"/>
<path d="M24.3109 22.7774C24.3867 22.8448 24.53 22.8111 24.6226 22.71C24.7238 22.6005 24.7406 22.4572 24.6648 22.3898C24.5889 22.3224 24.4541 22.3561 24.353 22.4572C24.2519 22.5668 24.235 22.71 24.3109 22.7774Z" fill="white"/>
<path d="M23.7041 23.6623C23.7968 23.7297 23.9485 23.6707 24.0496 23.5274C24.1423 23.3926 24.1423 23.2241 24.0496 23.1567C23.9569 23.0893 23.8052 23.1482 23.7041 23.2831C23.603 23.4263 23.603 23.5949 23.7041 23.6623Z" fill="white"/>
<path d="M22.87 24.5132C22.9542 24.6059 23.1312 24.5806 23.266 24.4542C23.4009 24.3278 23.4346 24.1508 23.3503 24.0581C23.266 23.9654 23.0806 23.9907 22.9542 24.1171C22.8194 24.2519 22.7857 24.4289 22.87 24.5132Z" fill="white"/>
<path d="M21.7239 25.0104C21.7576 25.1284 21.9345 25.1873 22.1115 25.1368C22.2884 25.0862 22.398 24.943 22.3643 24.825C22.3306 24.707 22.1536 24.648 21.9767 24.6986C21.8081 24.7492 21.6901 24.8924 21.7239 25.0104Z" fill="white"/>
<path d="M20.4683 25.1033C20.4599 25.2297 20.6116 25.3392 20.797 25.3392C20.9824 25.3476 21.1256 25.2381 21.134 25.1117C21.134 24.9853 20.9908 24.8757 20.8054 24.8757C20.62 24.8757 20.4683 24.9769 20.4683 25.1033Z" fill="white"/>
<path d="M19.2971 24.9095C19.2718 25.0359 19.3982 25.1623 19.5836 25.196C19.7605 25.2297 19.9291 25.1538 19.9459 25.0274C19.9712 24.901 19.8364 24.7746 19.6594 24.7409C19.4825 24.7072 19.3223 24.7831 19.2971 24.9095Z" fill="white"/>
</svg>
