<?xml version="1.0" encoding="UTF-8"?><svg id="Layer_2" xmlns="http://www.w3.org/2000/svg" viewBox="0 0 595.722 381.893"><defs><style>.cls-1{fill:#090b2a;}.cls-2{fill:none;stroke:#090b2a;stroke-linecap:round;stroke-linejoin:round;stroke-width:17.328px;}</style></defs><g id="Layer_1-2"><g><g><path class="cls-2" d="m521.061,204.284c-24.109,71.676-47.468,140.953-57.464,168.86-.02,0-64.15-.448-97.188-.459"/><path class="cls-2" d="m327.198,335.84c-.77-.104-1.541-.209-2.301-.334-31.655-4.766-59.873-20.805-80.882-44.144-23.704-26.322-38.253-61.925-38.253-101.116"/><path class="cls-2" d="m411.319,254.914c-16.949-73.115-32.771-162.081-51.488-210.522.02,0,.03,0,.049.01,17.522,2.002,34.065,7.446,49.019,15.685,14.963,8.239,28.337,19.282,39.478,32.454,21.946,25.936,35.28,60.142,35.3,97.643v.063"/><path class="cls-2" d="m332.156,8.726h.02c10.055.021,19.151,13.641,27.626,35.603l.03.063c-4.958-.574-10.005-.866-15.112-.866"/><path class="cls-2" d="m359.11,336.216c17.492-1.898,27.29,21.399,13.808,33.33-2.331,2.065-4.701,3.16-7.141,3.16h-7.605c-11.753,0-21.907-14.141-30.974-36.865,5.738.761,11.586,1.158,17.522,1.158,4.859,0,9.66-.261,14.391-.782Z"/><path class="cls-2" d="m460.19,68.315c13.324-24.789,32.979-58.734,32.979-58.734,32.603.302,93.889.115,93.889.115-5.541,15.591-15.042,43.435-26.46,77.193"/><path class="cls-2" d="m237.654,9.363l94.521-.699c-2.133,0-4.227.615-6.282,1.794-15.665,8.969-8.316,34.592,9.472,33.34,3.091-.219,6.222-.334,9.373-.334,5.087,0,10.124.292,15.062.866h.049c.01.021.02.052.03.073,9.343,24.215,17.976,58.536,26.381,95.933,8.405,37.439,16.603,77.964,25.077,114.516,4.346,18.73,8.761,36.427,13.324,52.133.385,1.314,1.896,1.835,2.933,1.022,34.045-26.749,56.1-69.559,56.1-117.822"/><line class="cls-2" x1="191.668" y1="133.63" x2="237.654" y2="9.363"/><path class="cls-2" d="m239.561,320.083c-5.521,25.154-13.097,52.988-13.215,52.988-31.912.365-91.42,0-123.253-.104l51.537-139.264"/><path class="cls-2" d="m325.005,335.799c-.04-.094-.079-.188-.109-.292-18.875-47.481-30.836-132.089-44.959-203.316-4.553-22.953-9.097-44.53-13.798-63.01-18.223,13.223-33.315,30.921-43.853,51.59-10.529,20.669-16.504,44.301-16.504,69.413v.063c.02,39.17,14.558,74.742,38.253,101.053"/></g><ellipse class="cls-1" cx="541.525" cy="49.717" rx="9.707" ry="9.917"/><ellipse class="cls-1" cx="161.576" cy="337.941" rx="9.707" ry="9.917"/><path class="cls-1" d="m540.816,140.755c-.032-2.548,1.318-4.499,3.71-5.246.721-.225,1.488-.346,2.242-.399,4.09-.286,4.104-.273,4.316-4.624.074-1.516.462-2.893,1.443-4.059,2.48-2.948,7.016-2.374,8.729,1.092.675,1.366.813,2.837.663,4.3-.248,2.424.571,3.571,3.094,3.294.986-.108,2.035.053,3.015.278,2.713.624,4.347,2.701,4.308,5.32-.04,2.69-1.925,4.812-4.65,5.36-1.8.363-4.06-.781-5.338.718-1.133,1.33-.181,3.516-.527,5.296-.532,2.734-2.738,4.762-5.253,4.796-2.585.036-4.83-2.072-5.387-4.963-.341-1.766.672-3.947-.623-5.246-1.288-1.293-3.413-.278-5.146-.595-2.816-.516-4.561-2.504-4.596-5.323Z"/><path class="cls-1" d="m160.881,182.334c-.032-2.548,1.318-4.499,3.71-5.246.721-.225,1.488-.346,2.242-.399,4.09-.286,4.104-.273,4.316-4.624.074-1.516.462-2.893,1.443-4.059,2.48-2.948,7.016-2.374,8.729,1.092.675,1.366.813,2.837.663,4.3-.248,2.424.571,3.571,3.094,3.294.986-.108,2.035.053,3.015.278,2.713.624,4.347,2.701,4.308,5.32-.04,2.69-1.925,4.812-4.65,5.36-1.8.363-4.06-.781-5.338.718-1.133,1.33-.181,3.516-.527,5.296-.532,2.734-2.738,4.762-5.253,4.796-2.585.036-4.83-2.072-5.387-4.963-.341-1.766.672-3.947-.623-5.246-1.288-1.293-3.413-.278-5.146-.595-2.816-.516-4.561-2.504-4.596-5.323Z"/></g></g></svg>