<?xml version="1.0" encoding="UTF-8"?>
<svg version="1.1" viewBox="0 0 2523 382" fill="#fff" xmlns="http://www.w3.org/2000/svg">
<path d="M429.39 196.07C428.312 195.707 427.172 195.56 426.037 195.638C424.902 195.715 423.793 196.015 422.774 196.521C421.755 197.027 420.845 197.729 420.097 198.587C419.349 199.444 418.778 200.441 418.415 201.519C395.333 270.143 373.556 334.639 362.995 364.449C355.723 364.399 302.988 364.03 271.977 364.019C269.679 364.019 267.476 364.931 265.851 366.555C264.226 368.179 263.312 370.382 263.311 372.68C263.311 373.817 263.534 374.944 263.969 375.996C264.404 377.047 265.042 378.002 265.846 378.807C266.65 379.612 267.605 380.251 268.656 380.687C269.707 381.123 270.833 381.347 271.971 381.348C304.934 381.359 369.142 381.807 369.162 381.807C370.948 381.806 372.69 381.254 374.15 380.226C375.61 379.198 376.716 377.744 377.318 376.063C387.404 347.902 410.727 278.725 434.838 207.043C435.201 205.964 435.348 204.825 435.271 203.69C435.193 202.554 434.893 201.446 434.387 200.426C433.881 199.407 433.179 198.498 432.322 197.75C431.464 197.002 430.468 196.43 429.389 196.068L429.39 196.07Z"/>
<path d="M111.33 181.58C110.192 181.58 109.066 181.804 108.014 182.239C106.963 182.675 106.008 183.313 105.204 184.118C104.399 184.922 103.761 185.877 103.326 186.928C102.89 187.98 102.666 189.106 102.666 190.244C102.666 231.583 118.02 269.263 143.145 297.164C165.404 321.891 195.414 338.98 229.129 344.068C230.019 344.213 230.851 344.327 231.606 344.429C233.883 344.737 236.189 344.128 238.017 342.735C239.844 341.342 241.044 339.281 241.352 337.004C241.659 334.727 241.05 332.42 239.657 330.593C238.265 328.765 236.203 327.565 233.926 327.258C233.162 327.154 232.472 327.059 231.871 326.961C231.833 326.955 231.794 326.949 231.756 326.943C202.181 322.49 175.77 307.509 156.022 285.57V285.568C133.738 260.823 119.995 227.297 119.995 190.246C119.995 189.108 119.771 187.982 119.335 186.93C118.9 185.879 118.262 184.924 117.457 184.12C116.653 183.315 115.698 182.677 114.647 182.241C113.595 181.806 112.469 181.582 111.331 181.582L111.33 181.58Z"/>
<path d="M265.4 35.727C263.993 35.7271 262.607 36.07 261.362 36.726C260.117 37.382 259.05 38.3313 258.255 39.4919C257.459 40.6525 256.958 41.9894 256.795 43.3871C256.631 44.7849 256.811 46.2013 257.318 47.514C275.341 94.158 291.417 183.404 308.447 256.864C308.966 259.102 310.353 261.042 312.303 262.258C314.252 263.474 316.605 263.865 318.843 263.346C321.082 262.828 323.022 261.441 324.238 259.491C325.454 257.542 325.846 255.189 325.327 252.95C309.922 186.49 295.564 107.09 278.408 55.5004C289.631 58.1156 300.337 62.1925 310.287 67.6744H310.288C324.297 75.3878 336.855 85.7504 347.33 98.1354H347.331C367.968 122.524 380.562 154.738 380.581 190.188V190.245C380.581 191.383 380.806 192.509 381.241 193.561C381.676 194.612 382.315 195.567 383.119 196.371C383.924 197.176 384.879 197.814 385.93 198.25C386.981 198.685 388.108 198.909 389.246 198.909C390.383 198.909 391.51 198.685 392.561 198.25C393.612 197.814 394.568 197.176 395.372 196.371C396.177 195.567 396.815 194.612 397.25 193.561C397.686 192.509 397.91 191.383 397.91 190.245V190.182V190.178C397.889 150.626 383.815 114.427 360.56 86.9485C348.753 72.9895 334.565 61.2655 318.648 52.5015H318.646C302.74 43.7382 285.102 37.9315 266.431 35.7985L269.483 36.738C268.356 36.1444 265.419 35.7321 265.399 35.7321L265.4 35.727Z"/>
<path d="M237.73 0.0624977C236.592 0.0624845 235.466 0.286579 234.414 0.721986C233.363 1.15739 232.408 1.79559 231.604 2.60012C230.799 3.40466 230.161 4.35979 229.725 5.41097C229.29 6.46216 229.066 7.58881 229.066 8.7266C229.066 9.86439 229.29 10.991 229.725 12.0422C230.161 13.0934 230.799 14.0485 231.604 14.8531C232.408 15.6576 233.363 16.2958 234.414 16.7312C235.466 17.1666 236.592 17.3907 237.73 17.3907H237.732C238.853 17.393 241.429 18.4122 245.211 23.4805C247.31 26.294 249.547 30.3005 251.818 34.9495C251.305 34.9439 250.809 34.8616 250.295 34.8616C249.157 34.8616 248.03 35.0857 246.979 35.5211C245.928 35.9565 244.973 36.5947 244.168 37.3992C243.364 38.2038 242.725 39.1589 242.29 40.2101C241.854 41.2613 241.63 42.3879 241.63 43.5257C241.63 44.6635 241.854 45.7901 242.29 46.8413C242.725 47.8925 243.364 48.8476 244.168 49.6522C244.973 50.4567 245.928 51.0949 246.979 51.5303C248.03 51.9657 249.157 52.1898 250.295 52.1898C255.071 52.1898 259.785 52.463 264.41 52.9984C265.943 53.1741 267.496 52.9369 268.907 52.3113C270.319 51.6857 271.537 50.6944 272.437 49.44C273.337 48.1855 273.885 46.7135 274.025 45.1761C274.165 43.6387 273.892 42.0918 273.234 40.6954C268.905 29.5544 264.409 20.2374 259.099 13.1194C253.699 5.882 246.701 0.0813977 237.767 0.0623977C237.761 0.0623917 237.755 0.0623917 237.749 0.0623977L237.73 0.0624977ZM273.199 40.6035L273.23 40.6758C273.23 40.6732 273.229 40.6706 273.228 40.668L273.199 40.6035Z"/>
<path d="M233.91 327.26C232.411 327.061 230.886 327.259 229.487 327.832C228.088 328.405 226.863 329.334 225.935 330.528C225.006 331.721 224.406 333.136 224.193 334.633C223.981 336.13 224.164 337.657 224.724 339.061C229.441 350.882 234.462 360.745 240.507 368.243C246.553 375.741 254.394 381.378 263.745 381.378H271.351C276.383 381.378 280.861 379.03 284.236 376.04C293.85 367.529 295.378 354.394 291.199 344.37C287.02 334.345 276.448 326.234 263.75 327.612C263.745 327.615 263.739 327.617 263.734 327.62L263.736 327.614C259.326 328.1 254.842 328.345 250.293 328.345C244.743 328.345 239.277 327.972 233.91 327.26ZM265.619 344.836V344.838C270.413 344.318 273.485 346.906 275.207 351.037C276.929 355.169 276.615 359.646 272.75 363.066C272.749 363.067 272.747 363.068 272.746 363.068C271.459 364.208 271.199 364.051 271.351 364.051H263.746C261.344 364.051 258.232 362.619 253.996 357.365C251.649 354.454 249.198 350.333 246.734 345.553C247.923 345.583 249.097 345.672 250.293 345.672C255.457 345.672 260.572 345.391 265.619 344.836Z"/>
<path d="M398.82 0.917969C397.288 0.903867 395.779 1.2965 394.447 2.05582C393.116 2.81515 392.01 3.91399 391.242 5.24027C391.242 5.24027 371.575 39.1993 358.131 64.2133C357.592 65.2155 357.256 66.314 357.142 67.4461C357.028 68.5781 357.138 69.7216 357.465 70.8113C357.793 71.9009 358.332 72.9153 359.052 73.7965C359.772 74.6777 360.658 75.4086 361.66 75.9473C363.684 77.0346 366.057 77.2734 368.258 76.6112C370.458 75.949 372.305 74.44 373.392 72.4161C385.169 50.5051 400.246 24.3381 403.759 18.2501C432.8 18.4558 468.802 18.3742 480.507 18.3438C474.8 34.6728 467.678 55.3878 457.962 84.1138C457.226 86.2904 457.385 88.6701 458.404 90.7296C459.423 92.7891 461.217 94.3596 463.394 95.0958C465.57 95.8317 467.95 95.6728 470.01 94.6542C472.069 93.6356 473.64 91.8407 474.376 89.6642C485.79 55.9182 495.294 28.0662 500.792 12.5982C501.257 11.289 501.401 9.88702 501.21 8.51065C501.02 7.13428 500.502 5.82385 499.699 4.68988C498.896 3.55591 497.832 2.63165 496.597 1.99507C495.362 1.35849 493.992 1.02826 492.602 1.03222C492.602 1.03222 431.288 1.2197 398.819 0.918939L398.82 0.917969Z"/>
<path d="M237.68 0L143.159 0.69922C142.021 0.707646 140.896 0.940103 139.848 1.38332C138.8 1.82653 137.85 2.47183 137.051 3.28235C136.253 4.09287 135.622 5.05275 135.194 6.10718C134.767 7.16161 134.551 8.28993 134.559 9.42772C134.576 11.7253 135.505 13.922 137.142 15.5347C138.778 17.1474 140.988 18.044 143.286 18.0273L215.602 17.4922C213.967 22.7232 213.894 28.3372 215.321 33.3382C218.327 43.8772 228.435 53.3642 241.542 52.4422L241.546 52.4402C244.438 52.2352 247.367 52.1296 250.307 52.1296C253.29 52.1296 256.196 52.4234 259.126 52.6355C267.487 75.7195 275.553 107.427 283.376 142.237C291.752 179.547 299.951 220.083 308.466 256.817V256.819C312.832 275.637 317.277 293.468 321.909 309.411C321.911 309.418 321.913 309.424 321.915 309.431C323.846 316.022 332.841 319.278 338.509 314.835C338.511 314.833 338.514 314.831 338.517 314.829C374.664 286.429 397.927 241.097 397.927 190.199C397.927 189.061 397.703 187.935 397.267 186.884C396.832 185.832 396.194 184.877 395.389 184.073C394.585 183.268 393.629 182.63 392.578 182.195C391.527 181.759 390.4 181.535 389.263 181.535C388.125 181.535 386.998 181.759 385.947 182.195C384.896 182.63 383.941 183.268 383.136 184.073C382.332 184.877 381.693 185.832 381.258 186.884C380.823 187.935 380.599 189.061 380.599 190.199C380.599 231.866 363.093 268.939 335.744 294.199C332.231 281.327 328.762 267.624 325.348 252.908V252.906C316.914 216.525 308.717 176.013 300.283 138.446V138.444C291.848 100.915 283.219 66.4013 273.531 41.2943C273.452 41.0886 273.365 40.8859 273.271 40.6869C273.72 41.6298 273.711 41.5995 273.242 40.6146C272.538 39.1391 271.431 37.8928 270.05 37.0195C268.668 36.1462 267.067 35.6815 265.433 35.6791H265.429C265.425 35.6778 265.421 35.6765 265.417 35.6752H265.368C260.412 35.1357 255.388 34.8099 250.307 34.8099C246.947 34.8099 243.613 34.9325 240.325 35.1654C235.644 35.4949 233.184 32.7953 231.985 28.5931C230.786 24.3909 231.528 20.4122 235.766 17.9861C235.769 17.9848 235.772 17.9835 235.774 17.9822C236.753 17.4208 237.274 17.3378 237.741 17.3377H237.743H237.808C240.085 17.2975 242.254 16.3626 243.847 14.7353C245.44 13.1079 246.328 10.9189 246.32 8.64178C246.311 6.36461 245.407 4.18232 243.801 2.56692C242.196 0.951525 240.02 0.0328779 237.743 0.00968C237.722 0.00968 237.702 0.0193727 237.681 0.0194456L237.68 0Z"/>
<path d="M146.23 1.2383C144.075 0.440556 141.692 0.531522 139.604 1.49118C137.516 2.45084 135.895 4.20059 135.097 6.3555L89.117 130.625C88.7221 131.693 88.5412 132.827 88.5847 133.964C88.6282 135.101 88.8953 136.218 89.3706 137.252C89.846 138.286 90.5204 139.216 91.3552 139.989C92.19 140.763 93.169 141.364 94.2361 141.758C95.3033 142.153 96.4377 142.334 97.5748 142.291C98.7118 142.247 99.8291 141.98 100.863 141.505C101.897 141.03 102.827 140.355 103.6 139.52C104.373 138.686 104.974 137.707 105.369 136.639L151.349 12.3694C152.146 10.2145 152.055 7.83124 151.095 5.74382C150.135 3.65641 148.385 2.03569 146.23 1.2383Z"/>
<path d="M63.209 225.58C62.1419 225.185 61.0074 225.004 59.8704 225.048C58.7334 225.091 57.616 225.358 56.5822 225.834C55.5484 226.309 54.6184 226.983 53.8452 227.818C53.072 228.653 52.4708 229.632 52.076 230.699L0.539041 369.959C0.0550877 371.267 -0.106075 372.672 0.0692412 374.056C0.244557 375.439 0.751173 376.76 1.54606 377.906C2.34094 379.051 3.40061 379.988 4.63506 380.637C5.86951 381.285 7.24227 381.627 8.63674 381.631C40.4107 381.735 99.7997 382.098 131.917 381.733C131.925 381.73 138.048 379.264 138.643 378.53C139.24 377.795 139.395 377.453 139.54 377.184C139.83 376.647 139.892 376.462 139.958 376.299C140.09 375.973 140.122 375.861 140.159 375.75C140.234 375.528 140.27 375.402 140.315 375.252C140.406 374.952 140.504 374.615 140.626 374.184C140.87 373.321 141.202 372.115 141.614 370.592C142.439 367.547 143.577 363.254 144.886 358.168C147.502 347.996 150.796 334.673 153.591 321.939C154.083 319.695 153.664 317.347 152.426 315.412C151.188 313.476 149.231 312.112 146.987 311.619C145.876 311.375 144.727 311.353 143.607 311.553C142.487 311.752 141.417 312.171 140.459 312.784C139.501 313.398 138.673 314.194 138.022 315.127C137.371 316.061 136.911 317.113 136.667 318.225C133.941 330.645 130.686 343.817 128.105 353.85C126.988 358.192 126.088 361.569 125.321 364.42C96.1104 364.664 52.3054 364.471 21.0914 364.347L68.3254 236.717C68.7204 235.65 68.9013 234.516 68.8578 233.379C68.8142 232.242 68.5472 231.124 68.0718 230.091C67.5965 229.057 66.9221 228.127 66.0873 227.353C65.2525 226.58 64.2735 225.979 63.2063 225.584L63.209 225.58Z"/>
<path d="M171.91 60.518C170.017 60.4756 168.162 61.0546 166.629 62.1664C147.272 76.2124 131.296 94.9644 120.147 116.832L120.145 116.836C109.005 138.704 102.698 163.695 102.698 190.182V190.245V190.249C102.719 231.56 118.062 269.208 143.177 297.089C143.938 297.934 144.859 298.622 145.886 299.111C146.912 299.601 148.026 299.884 149.162 299.943C150.298 300.003 151.435 299.838 152.508 299.458C153.58 299.078 154.567 298.491 155.413 297.73C157.12 296.192 158.146 294.038 158.266 291.744C158.386 289.449 157.589 287.201 156.051 285.494C133.777 260.763 120.045 227.269 120.026 190.242V190.179C120.026 166.442 125.667 144.17 135.585 124.7V124.698C143.414 109.344 153.978 95.847 166.444 84.704C169.993 99.852 173.508 116.171 177.018 133.87C191.068 204.731 202.708 289.11 222.424 338.71L222.151 337.911C222.35 338.601 222.552 339.052 222.612 339.194C223.512 341.309 225.215 342.979 227.346 343.837C229.478 344.696 231.863 344.672 233.977 343.772C236.091 342.873 237.761 341.17 238.62 339.039C239.479 336.909 239.456 334.524 238.557 332.409C238.537 332.363 238.66 332.627 238.799 333.109C238.721 332.838 238.63 332.57 238.526 332.308C220.492 286.943 208.21 202.108 194.014 130.508V130.506C189.448 107.49 184.885 85.7959 180.116 67.0469C179.649 65.2123 178.594 63.581 177.112 62.4026C175.63 61.2242 173.803 60.5635 171.911 60.5215L171.91 60.518Z"/>
<path d="M447.1 59.634C452.461 59.634 456.807 55.194 456.807 49.717C456.807 44.24 452.461 39.8 447.1 39.8C441.739 39.8 437.393 44.24 437.393 49.717C437.393 55.194 441.739 59.634 447.1 59.634Z"/>
<path d="M67.1469 347.857C72.508 347.857 76.8539 343.417 76.8539 337.94C76.8539 332.463 72.508 328.023 67.1469 328.023C61.7859 328.023 57.4399 332.463 57.4399 337.94C57.4399 343.417 61.7859 347.857 67.1469 347.857Z"/>
<path d="M446.39 140.76C446.358 138.212 447.708 136.261 450.1 135.514C450.821 135.289 451.588 135.168 452.342 135.115C456.432 134.829 456.446 134.842 456.658 130.491C456.732 128.975 457.12 127.598 458.101 126.432C460.581 123.484 465.117 124.058 466.83 127.524C467.505 128.89 467.643 130.361 467.493 131.824C467.245 134.248 468.064 135.395 470.587 135.118C471.573 135.01 472.622 135.171 473.602 135.396C476.315 136.02 477.949 138.097 477.91 140.716C477.87 143.406 475.985 145.528 473.26 146.076C471.46 146.439 469.2 145.295 467.922 146.794C466.789 148.124 467.741 150.31 467.395 152.09C466.863 154.824 464.657 156.852 462.142 156.886C459.557 156.922 457.312 154.814 456.755 151.923C456.414 150.157 457.427 147.976 456.132 146.677C454.844 145.384 452.719 146.399 450.986 146.082C448.17 145.566 446.425 143.579 446.39 140.76Z"/>
<path d="M66.452 182.33C66.42 179.782 67.77 177.831 70.162 177.084C70.883 176.859 71.65 176.738 72.404 176.685C76.494 176.399 76.508 176.412 76.72 172.061C76.794 170.545 77.182 169.168 78.163 168.002C80.643 165.054 85.179 165.628 86.892 169.094C87.567 170.46 87.705 171.931 87.555 173.394C87.307 175.818 88.126 176.965 90.649 176.688C91.635 176.58 92.684 176.741 93.664 176.966C96.377 177.59 98.011 179.667 97.972 182.286C97.932 184.976 96.047 187.098 93.322 187.646C91.522 188.009 89.262 186.865 87.984 188.364C86.851 189.694 87.803 191.88 87.457 193.66C86.925 196.394 84.719 198.422 82.204 198.456C79.619 198.492 77.374 196.384 76.817 193.493C76.476 191.727 77.489 189.546 76.194 188.247C74.906 186.954 72.781 187.969 71.048 187.652C68.232 187.136 66.487 185.148 66.452 182.329V182.33Z"/>
<path d="M593.987 99.945H618.627L722.227 253.105V99.945H748.267V295.945H723.907L620.027 143.345V295.945H593.987V99.945ZM811.049 295.945C804.515 295.945 799.289 294.078 795.369 290.345C791.635 286.612 789.769 281.478 789.769 274.945V99.945H927.249V123.185H816.369V184.225H918.849V207.185H816.369V272.705H927.249V295.945H811.049ZM981.674 295.945C975.327 295.945 970.194 294.078 966.274 290.345C962.354 286.425 960.394 281.292 960.394 274.945V99.945H1048.03C1065.02 99.945 1078.65 104.052 1088.91 112.265C1099.37 120.292 1104.59 131.025 1104.59 144.465V159.025C1104.59 165.745 1103.01 172.092 1099.83 178.065C1096.85 184.038 1092.55 188.892 1086.95 192.625V192.905C1095.91 195.518 1103.1 200.372 1108.51 207.465C1114.11 214.372 1116.91 222.398 1116.91 231.545V245.545C1116.91 260.852 1111.78 273.078 1101.51 282.225C1091.43 291.372 1077.71 295.945 1060.35 295.945H981.674ZM1051.95 185.905C1059.79 185.905 1066.05 183.478 1070.71 178.625C1075.57 173.585 1077.99 166.958 1077.99 158.745V145.865C1077.99 139.145 1075.19 133.732 1069.59 129.625C1063.99 125.518 1056.71 123.465 1047.75 123.465H986.994V185.905H1051.95ZM1057.55 272.425C1067.63 272.425 1075.57 269.905 1081.35 264.865C1087.33 259.825 1090.31 253.105 1090.31 244.705V231.545C1090.31 224.638 1087.79 219.038 1082.75 214.745C1077.71 210.452 1071.09 208.305 1062.87 208.305H986.994V272.425H1057.55ZM1210.69 298.185C1197.99 298.185 1186.79 295.478 1177.09 290.065C1167.57 284.465 1160.19 276.625 1154.97 266.545C1149.74 256.465 1147.13 244.892 1147.13 231.825V99.945H1173.73V231.825C1173.73 244.518 1177.09 254.785 1183.81 262.625C1190.71 270.465 1199.67 274.385 1210.69 274.385H1240.65C1251.66 274.385 1260.53 270.465 1267.25 262.625C1274.15 254.785 1277.61 244.518 1277.61 231.825V99.945H1304.21V231.825C1304.21 244.892 1301.59 256.465 1296.37 266.545C1291.14 276.625 1283.67 284.465 1273.97 290.065C1264.45 295.478 1253.34 298.185 1240.65 298.185H1210.69ZM1365.85 295.945C1359.32 295.945 1354.09 294.078 1350.17 290.345C1346.44 286.612 1344.57 281.572 1344.57 275.225V99.945H1371.17V272.425H1477.57V295.945H1365.85ZM1616.27 244.425H1534.51L1515.47 295.945H1487.75L1563.63 99.945H1575.67C1583.69 99.945 1589.39 104.332 1592.75 113.105L1663.03 295.945H1635.59L1616.27 244.425ZM1542.35 222.025H1608.43L1575.67 133.545H1575.39L1542.35 222.025ZM1784.76 295.945C1778.23 295.945 1773 294.078 1769.08 290.345C1765.35 286.612 1763.48 281.572 1763.48 275.225V99.945H1790.08V272.425H1896.48V295.945H1784.76ZM2035.17 244.425H1953.41L1934.37 295.945H1906.65L1982.53 99.945H1994.57C2002.6 99.945 2008.29 104.332 2011.65 113.105L2081.93 295.945H2054.49L2035.17 244.425ZM1961.25 222.025H2027.33L1994.57 133.545H1994.29L1961.25 222.025ZM2126.83 295.945C2120.48 295.945 2115.35 294.078 2111.43 290.345C2107.51 286.425 2105.55 281.292 2105.55 274.945V99.945H2193.19C2210.18 99.945 2223.8 104.052 2234.07 112.265C2244.52 120.292 2249.75 131.025 2249.75 144.465V159.025C2249.75 165.745 2248.16 172.092 2244.99 178.065C2242 184.038 2237.71 188.892 2232.11 192.625V192.905C2241.07 195.518 2248.26 200.372 2253.67 207.465C2259.27 214.372 2262.07 222.398 2262.07 231.545V245.545C2262.07 260.852 2256.94 273.078 2246.67 282.225C2236.59 291.372 2222.87 295.945 2205.51 295.945H2126.83ZM2197.11 185.905C2204.95 185.905 2211.2 183.478 2215.87 178.625C2220.72 173.585 2223.15 166.958 2223.15 158.745V145.865C2223.15 139.145 2220.35 133.732 2214.75 129.625C2209.15 125.518 2201.87 123.465 2192.91 123.465H2132.15V185.905H2197.11ZM2202.71 272.425C2212.79 272.425 2220.72 269.905 2226.51 264.865C2232.48 259.825 2235.47 253.105 2235.47 244.705V231.545C2235.47 224.638 2232.95 219.038 2227.91 214.745C2222.87 210.452 2216.24 208.305 2208.03 208.305H2132.15V272.425H2202.71ZM2346.32 298.185C2328.21 298.185 2313.75 292.772 2302.92 281.945C2292.09 271.118 2286.68 256.558 2286.68 238.265H2312.72C2312.72 249.278 2315.8 258.052 2321.96 264.585C2328.31 271.118 2336.61 274.385 2346.88 274.385H2377.96C2388.23 274.385 2396.44 272.238 2402.6 267.945C2408.76 263.465 2411.84 257.585 2411.84 250.305V235.185C2411.84 229.398 2409.6 224.545 2405.12 220.625C2400.83 216.705 2394.67 214.092 2386.64 212.785L2335.68 204.385C2320.75 201.958 2309.17 196.825 2300.96 188.985C2292.93 181.145 2288.92 171.345 2288.92 159.585V144.185C2288.92 130.185 2294.24 118.985 2304.88 110.585C2315.71 101.998 2329.89 97.705 2347.44 97.705H2379.08C2390.09 97.705 2399.8 100.038 2408.2 104.705C2416.79 109.185 2423.41 115.625 2428.08 124.025C2432.75 132.238 2435.08 141.758 2435.08 152.585H2408.76C2408.76 143.252 2406.05 135.785 2400.64 130.185C2395.23 124.398 2388.04 121.505 2379.08 121.505H2347.44C2337.92 121.505 2330.17 123.652 2324.2 127.945C2318.41 132.052 2315.52 137.745 2315.52 145.025V157.625C2315.52 163.598 2317.57 168.545 2321.68 172.465C2325.97 176.385 2332.04 179.092 2339.88 180.585L2390.28 189.265C2405.77 191.878 2417.63 197.012 2425.84 204.665C2434.24 212.132 2438.44 221.558 2438.44 232.945V251.145C2438.44 265.332 2432.93 276.718 2421.92 285.305C2411.09 293.892 2396.63 298.185 2378.52 298.185H2346.32Z"/>
</svg>
