<svg width="30" height="30" viewBox="0 0 30 30" fill="none" xmlns="http://www.w3.org/2000/svg">
<path fill-rule="evenodd" clip-rule="evenodd" d="M17.4955 4.5L12.5039 9.49155V25.5L17.4955 20.5084V4.5Z" fill="white"/>
<path fill-rule="evenodd" clip-rule="evenodd" d="M7.14688 6.63028C6.78999 6.27339 6.25325 6.16662 5.78694 6.35977C5.32064 6.55292 5.0166 7.00795 5.0166 7.51267V19.9916C5.0166 20.3225 5.14808 20.6399 5.3821 20.8739L10.0082 25.5V9.49155L7.14688 6.63028Z" fill="white"/>
<path fill-rule="evenodd" clip-rule="evenodd" d="M24.6173 9.12606L19.9913 4.5V20.5084L22.8525 23.3697C23.2094 23.7266 23.7462 23.8334 24.2125 23.6402C24.6788 23.4471 24.9828 22.9921 24.9828 22.4873V10.0084C24.9828 9.67749 24.8513 9.36008 24.6173 9.12606Z" fill="white"/>
</svg>
