<svg width="30" height="30" viewBox="0 0 30 30" fill="none" xmlns="http://www.w3.org/2000/svg">
<path d="M13.6568 5.91995C14.0796 4.6188 15.9204 4.61881 16.3432 5.91995L17.8537 10.5689C18.0428 11.1508 18.585 11.5447 19.1968 11.5447H24.085C25.4531 11.5447 26.022 13.2954 24.9151 14.0996L20.9605 16.9728C20.4655 17.3324 20.2584 17.9699 20.4475 18.5517L21.958 23.2007C22.3808 24.5018 20.8916 25.5838 19.7847 24.7796L15.8301 21.9065C15.3351 21.5468 14.6649 21.5468 14.1699 21.9065L10.2153 24.7796C9.10845 25.5838 7.61923 24.5018 8.042 23.2007L9.55252 18.5517C9.74159 17.9699 9.53447 17.3324 9.03948 16.9728L5.08487 14.0996C3.97805 13.2954 4.54688 11.5447 5.91498 11.5447H10.8032C11.415 11.5447 11.9572 11.1508 12.1463 10.5689L13.6568 5.91995Z" fill="white"/>
</svg>
