<svg width="30" height="30" viewBox="0 0 30 30" fill="none" xmlns="http://www.w3.org/2000/svg">
<path fill-rule="evenodd" clip-rule="evenodd" d="M17.625 11.0625C16.9001 11.0625 16.3125 10.4749 16.3125 9.75C16.3125 9.02513 16.9001 8.4375 17.625 8.4375H24.1875C24.9124 8.4375 25.5 9.02513 25.5 9.75V16.3125C25.5 17.0374 24.9124 17.625 24.1875 17.625C23.4626 17.625 22.875 17.0374 22.875 16.3125V12.9187L17.2406 18.5531C16.728 19.0656 15.897 19.0656 15.3844 18.5531L12.375 15.5437L6.74058 21.1781C6.22801 21.6906 5.39699 21.6906 4.88442 21.1781C4.37186 20.6655 4.37186 19.8345 4.88442 19.3219L11.4469 12.7594C11.9595 12.2469 12.7905 12.2469 13.3031 12.7594L16.3125 15.7688L21.0188 11.0625H17.625Z" fill="white"/>
</svg>
