<svg width="28" height="22" viewBox="0 0 28 22" fill="none" xmlns="http://www.w3.org/2000/svg">
<path d="M27.075 2.5C26.1125 2.9375 25.075 3.225 24 3.3625C25.1 2.7 25.95 1.65 26.35 0.3875C25.3125 1.0125 24.1625 1.45 22.95 1.7C21.9625 0.625 20.575 0 19 0C16.0625 0 13.6625 2.4 13.6625 5.3625C13.6625 5.7875 13.7125 6.2 13.8 6.5875C9.35005 6.3625 5.38755 4.225 2.75005 0.9875C2.28755 1.775 2.02505 2.7 2.02505 3.675C2.02505 5.5375 2.96255 7.1875 4.41255 8.125C3.52505 8.125 2.70005 7.875 1.97505 7.5V7.5375C1.97505 10.1375 3.82505 12.3125 6.27505 12.8C5.48846 13.0153 4.66267 13.0452 3.86255 12.8875C4.20206 13.9531 4.86697 14.8855 5.76382 15.5537C6.66067 16.2218 7.74436 16.5921 8.86255 16.6125C6.96709 18.113 4.61754 18.9241 2.20005 18.9125C1.77505 18.9125 1.35005 18.8875 0.925049 18.8375C3.30005 20.3625 6.12505 21.25 9.15005 21.25C19 21.25 24.4125 13.075 24.4125 5.9875C24.4125 5.75 24.4125 5.525 24.4 5.2875C25.45 4.5375 26.35 3.5875 27.075 2.5Z" fill="white"/>
</svg>
