<svg width="30" height="30" viewBox="0 0 30 30" fill="none" xmlns="http://www.w3.org/2000/svg">
<path d="M13.8333 10.3332C13.8333 12.2662 12.2663 13.8332 10.3333 13.8332C8.40033 13.8332 6.83333 12.2662 6.83333 10.3332C6.83333 8.40025 8.40033 6.83325 10.3333 6.83325C12.2663 6.83325 13.8333 8.40025 13.8333 10.3332Z" fill="white"/>
<path d="M23.1666 10.3332C23.1666 12.2662 21.5996 13.8332 19.6667 13.8332C17.7337 13.8332 16.1667 12.2662 16.1667 10.3332C16.1667 8.40025 17.7337 6.83325 19.6667 6.83325C21.5996 6.83325 23.1666 8.40025 23.1666 10.3332Z" fill="white"/>
<path d="M18.4173 23.1666C18.4718 22.7855 18.5 22.396 18.5 21.9999C18.5 20.0922 17.8459 18.3373 16.7497 16.9472C17.6078 16.4507 18.604 16.1666 19.6667 16.1666C22.8883 16.1666 25.5 18.7782 25.5 21.9999V23.1666H18.4173Z" fill="white"/>
<path d="M10.3333 16.1666C13.555 16.1666 16.1667 18.7782 16.1667 21.9999V23.1666H4.5V21.9999C4.5 18.7782 7.11167 16.1666 10.3333 16.1666Z" fill="white"/>
</svg>
