<svg width="76" height="73" viewBox="0 0 76 73" fill="#090b2c" xmlns="http://www.w3.org/2000/svg">
<path d="M37.7153 0.614746C41.1577 0.614746 44.478 1.03662 47.6763 1.88037C50.8745 2.72412 53.8652 3.93115 56.6484 5.50146C59.4316 7.07178 61.9585 8.94678 64.229 11.1265C66.4995 13.3062 68.4526 15.7437 70.0884 18.439C71.7241 21.1343 72.9814 24.0054 73.8604 27.0522C74.7393 30.0991 75.1909 33.2866 75.2153 36.6147C75.2153 39.9194 74.7759 43.1069 73.897 46.1772C73.0181 49.2476 71.7607 52.1187 70.125 54.7905C68.4893 57.4624 66.5361 59.8882 64.2656 62.0679C61.9951 64.2476 59.4561 66.1226 56.6484 67.6929C53.8408 69.2632 50.8501 70.4702 47.6763 71.314C44.5024 72.1577 41.1821 72.5913 37.7153 72.6147C34.2729 72.6147 30.9526 72.1929 27.7544 71.3491C24.5562 70.5054 21.5654 69.2983 18.7822 67.728C15.999 66.1577 13.4722 64.2827 11.2017 62.103C8.93115 59.9233 6.97803 57.4858 5.34229 54.7905C3.70654 52.0952 2.44922 49.2358 1.57031 46.2124C0.691406 43.189 0.239746 39.9897 0.215332 36.6147C0.215332 33.3101 0.654785 30.1226 1.53369 27.0522C2.4126 23.9819 3.66992 21.1108 5.30566 18.439C6.94141 15.7671 8.89453 13.3413 11.165 11.1616C13.4355 8.98193 15.9746 7.10693 18.7822 5.53662C21.5898 3.96631 24.5684 2.75928 27.7178 1.91553C30.8672 1.07178 34.1997 0.638184 37.7153 0.614746ZM37.7153 68.1147C40.7183 68.1147 43.6113 67.7397 46.3945 66.9897C49.1777 66.2397 51.79 65.1851 54.2314 63.8257C56.6729 62.4663 58.8945 60.814 60.8965 58.8687C62.8984 56.9233 64.6074 54.8022 66.0234 52.5054C67.4395 50.2085 68.5503 47.7007 69.356 44.9819C70.1616 42.2632 70.5522 39.4741 70.5278 36.6147C70.5278 33.7319 70.1372 30.9546 69.356 28.2827C68.5747 25.6108 67.4761 23.103 66.0601 20.7593C64.644 18.4155 62.9229 16.2827 60.8965 14.3608C58.8701 12.439 56.6606 10.7983 54.2681 9.43896C51.8755 8.07959 49.2632 7.01318 46.4312 6.23975C43.5991 5.46631 40.6938 5.09131 37.7153 5.11475C34.7124 5.11475 31.8193 5.48975 29.0361 6.23975C26.2529 6.98975 23.6406 8.04443 21.1992 9.40381C18.7578 10.7632 16.5361 12.4155 14.5342 14.3608C12.5322 16.3062 10.8232 18.4272 9.40723 20.7241C7.99121 23.021 6.88037 25.5288 6.07471 28.2476C5.26904 30.9663 4.87842 33.7554 4.90283 36.6147C4.90283 39.4976 5.29346 42.2749 6.07471 44.9468C6.85596 47.6187 7.95459 50.1265 9.37061 52.4702C10.7866 54.814 12.5078 56.9468 14.5342 58.8687C16.5605 60.7905 18.77 62.4312 21.1626 63.7905C23.5552 65.1499 26.1675 66.2163 28.9995 66.9897C31.8315 67.7632 34.7368 68.1382 37.7153 68.1147ZM59.5781 37.1772L61.3359 32.1147H64.0825L60.9697 41.1147H58.2231L56.4653 36.0522L54.7075 41.1147H51.9609L48.8481 32.1147H51.5947L53.3525 37.1772L55.1104 32.1147H57.8203L59.5781 37.1772ZM42.5859 32.1147H45.3325L42.2197 41.1147H39.4731L37.7153 36.0522L35.9575 41.1147H33.2109L30.0981 32.1147H32.8447L34.6025 37.1772L36.3604 32.1147H39.0703L40.8281 37.1772L42.5859 32.1147ZM23.8359 32.1147H26.5825L23.4697 41.1147H20.7231L18.9653 36.0522L17.2075 41.1147H14.4609L11.3481 32.1147H14.0947L15.8525 37.1772L17.6104 32.1147H20.3203L22.0781 37.1772L23.8359 32.1147Z"/>
</svg>
