<svg width="20" height="20" viewBox="0 0 20 20" fill="none" xmlns="http://www.w3.org/2000/svg">
<g id="Media / Icon/Filled/x">
<path id="Icon" fill-rule="evenodd" clip-rule="evenodd" d="M3.34171 3.34171C3.79732 2.8861 4.53601 2.8861 4.99162 3.34171L10 8.35008L15.0084 3.34171C15.464 2.8861 16.2027 2.8861 16.6583 3.34171C17.1139 3.79732 17.1139 4.53601 16.6583 4.99162L11.6499 10L16.6583 15.0084C17.1139 15.464 17.1139 16.2027 16.6583 16.6583C16.2027 17.1139 15.464 17.1139 15.0084 16.6583L10 11.6499L4.99162 16.6583C4.53601 17.1139 3.79732 17.1139 3.34171 16.6583C2.8861 16.2027 2.8861 15.464 3.34171 15.0084L8.35008 10L3.34171 4.99162C2.8861 4.53601 2.8861 3.79732 3.34171 3.34171Z" fill="white"/>
</g>
</svg>
