<svg width="41" height="40" viewBox="0 0 41 40" fill="none" xmlns="http://www.w3.org/2000/svg">
<rect x="0.756836" width="40" height="40" rx="20" fill="white"/>
<path fill-rule="evenodd" clip-rule="evenodd" d="M18.7506 24.1187C18.4088 24.4604 17.8548 24.4604 17.5131 24.1187L14.0131 20.6187C13.6714 20.277 13.6714 19.723 14.0131 19.3813L17.5131 15.8813C17.8548 15.5396 18.4088 15.5396 18.7506 15.8813C19.0923 16.223 19.0923 16.777 18.7506 17.1187L16.7443 19.125L26.8818 19.125C27.3651 19.125 27.7568 19.5167 27.7568 20C27.7568 20.4832 27.3651 20.875 26.8818 20.875L16.7443 20.875L18.7506 22.8813C19.0923 23.223 19.0923 23.777 18.7506 24.1187Z" fill="#4F46E5"/>
</svg>
